<svg xmlns="http://www.w3.org/2000/svg" width="91.622" height="91.622" viewBox="0 0 91.622 91.622">
  <path id="Path_3691" data-name="Path 3691" d="M93.622,47.811A45.811,45.811,0,1,1,47.811,2,45.811,45.811,0,0,1,93.622,47.811Z" transform="translate(-2 -2)" fill="#fff"/>
  <path id="Path_3692" data-name="Path 3692" d="M53.633,33.376a38.96,38.96,0,0,1-44.043,0,6.562,6.562,0,0,1-2.34-8.465C10.585,18.8,17.455,15,31.612,15s21.027,3.8,24.361,9.91A6.563,6.563,0,0,1,53.633,33.376Z" transform="translate(14.199 44.554)" fill="#28d0b0"/>
  <path id="Path_3693" data-name="Path 3693" d="M22.743,33.487A13.743,13.743,0,1,0,9,19.743,13.743,13.743,0,0,0,22.743,33.487Z" transform="translate(23.068 12.324)" fill="#28d0b0"/>
</svg>
